<svg width="703" height="703" viewBox="0 0 703 703" fill="none" xmlns="http://www.w3.org/2000/svg">
<circle cx="351.5" cy="351.5" r="351.5" fill="#9146FF"/>
<path d="M193 228H345C386.766 228 417.085 228.021 440.227 231.133C463.082 234.205 477.435 240.126 488.154 250.846C498.874 261.565 504.795 275.918 507.867 298.773C510.979 321.915 511 352.234 511 394V476H359C317.234 476 286.915 475.979 263.773 472.867C240.918 469.795 226.565 463.874 215.846 453.154C205.126 442.435 199.205 428.082 196.133 405.227C193.021 382.085 193 351.766 193 310V228Z" stroke="#F7F7F8" stroke-width="20"/>
<circle cx="308.5" cy="330.5" r="28.5" stroke="#F7F7F8" stroke-width="8"/>
<circle cx="394.5" cy="330.5" r="28.5" stroke="#F7F7F8" stroke-width="8"/>
<mask id="path-5-inside-1_35:98" fill="white">
<path d="M384 384.5C384 388.768 383.159 392.994 381.526 396.937C379.893 400.88 377.499 404.463 374.481 407.481C371.463 410.499 367.88 412.893 363.937 414.526C359.994 416.159 355.768 417 351.5 417C347.232 417 343.006 416.159 339.063 414.526C335.12 412.893 331.537 410.499 328.519 407.481C325.501 404.463 323.107 400.88 321.474 396.937C319.841 392.994 319 388.768 319 384.5L351.5 384.5H384Z"/>
</mask>
<path d="M384 384.5C384 388.768 383.159 392.994 381.526 396.937C379.893 400.88 377.499 404.463 374.481 407.481C371.463 410.499 367.88 412.893 363.937 414.526C359.994 416.159 355.768 417 351.5 417C347.232 417 343.006 416.159 339.063 414.526C335.12 412.893 331.537 410.499 328.519 407.481C325.501 404.463 323.107 400.88 321.474 396.937C319.841 392.994 319 388.768 319 384.5L351.5 384.5H384Z" fill="#F7F7F8" stroke="#F7F7F8" stroke-width="10" mask="url(#path-5-inside-1_35:98)"/>
</svg>
