<svg width="338" height="268" viewBox="0 0 338 268" fill="none" xmlns="http://www.w3.org/2000/svg">
<path d="M10 10H162C203.766 10 234.085 10.0212 257.227 13.1327C280.082 16.2054 294.435 22.1261 305.154 32.8457C315.874 43.5653 321.795 57.9178 324.867 80.7726C327.979 103.915 328 134.234 328 176V258H176C134.234 258 103.915 257.979 80.7726 254.867C57.9178 251.795 43.5653 245.874 32.8457 235.154C22.1261 224.435 16.2054 210.082 13.1327 187.227C10.0212 164.085 10 133.766 10 92V10Z" stroke="#A971FE" stroke-width="20"/>
<circle cx="125.5" cy="112.5" r="28.5" stroke="#A971FE" stroke-width="8"/>
<circle cx="211.5" cy="112.5" r="28.5" stroke="#A971FE" stroke-width="8"/>
<mask id="path-4-inside-1_37:126" fill="white">
<path d="M201 166.5C201 170.768 200.159 174.994 198.526 178.937C196.893 182.88 194.499 186.463 191.481 189.481C188.463 192.499 184.88 194.893 180.937 196.526C176.994 198.159 172.768 199 168.5 199C164.232 199 160.006 198.159 156.063 196.526C152.12 194.893 148.537 192.499 145.519 189.481C142.501 186.463 140.107 182.88 138.474 178.937C136.841 174.994 136 170.768 136 166.5L168.5 166.5H201Z"/>
</mask>
<path d="M201 166.5C201 170.768 200.159 174.994 198.526 178.937C196.893 182.88 194.499 186.463 191.481 189.481C188.463 192.499 184.88 194.893 180.937 196.526C176.994 198.159 172.768 199 168.5 199C164.232 199 160.006 198.159 156.063 196.526C152.12 194.893 148.537 192.499 145.519 189.481C142.501 186.463 140.107 182.88 138.474 178.937C136.841 174.994 136 170.768 136 166.5L168.5 166.5H201Z" fill="#A971FE" stroke="#A971FE" stroke-width="10" mask="url(#path-4-inside-1_37:126)"/>
</svg>
